<?xml version="1.0" encoding="UTF-8"?>
<svg id="a" data-name="レイヤー 1" xmlns="http://www.w3.org/2000/svg" width="471.3391704" height="290.7696709" viewBox="0 0 471.3391704 290.7696709">
  <defs>
    <style>
      .b {
        stroke: #e73817;
        stroke-width: 13.664732px;
      }

      .b, .c {
        fill: none;
        stroke-miterlimit: 10;
      }

      .c {
        stroke: #e51c23;
        stroke-width: 20.497098px;
      }

      .d {
        fill: #e73817;
      }
    </style>
  </defs>
  <polyline class="c" points="70.5341317 64.039584 70.5341317 10.2514474 141.6711192 10.2514474 141.6711192 290.7571115"/>
  <polyline class="c" points="159.6864375 10.2514474 273.9248917 10.2514474 300.0903209 45.9539092 300.0903209 290.7571115"/>
  <line class="c" x1="222.1261722" y1="10.2514474" x2="222.1261722" y2="290.7571115"/>
  <line class="c" x1="318.6679411" y1="10.2640069" x2="444.2233292" y2="10.2640069"/>
  <line class="c" x1="318.6679411" y1="115.8977446" x2="444.2233292" y2="115.8977446"/>
  <polyline class="c" points="461.0906214 .0173295 461.0906214 280.4883346 318.1056392 280.4883346"/>
  <polyline class="c" points="70.5341317 226.7175275 70.5341317 280.505664 10.248549 280.505664 10.248549 0"/>
  <line class="b" x1="40.3913403" y1=".0173295" x2="40.3913403" y2="140.252832"/>
  <line class="b" x1="106.1026254" y1="27.9184723" x2="106.1026254" y2="155.9183582"/>
  <line class="b" x1="45.113711" y1="95.1806336" x2="112.8661359" y2="95.1806336"/>
  <polyline class="b" points="33.6910706 152.3244706 106.1026254 152.3244706 106.1026254 192.9000176 106.1026254 290.7571115"/>
  <polyline class="b" points="106.1026254 180.6354471 40.3913403 180.6354471 40.3913403 214.9982292 106.1026254 214.9982292"/>
  <polyline class="b" points="165.0124179 27.9184723 165.0124179 93.0269016 197.6362352 93.0269016 197.6362352 283.9373049 159.6864375 283.9373049"/>
  <line class="b" x1="197.6362352" y1="27.9184723" x2="197.6362352" y2="81.5726409"/>
  <polyline class="b" points="277.9265617 91.8756145 246.6161092 91.9612161 246.6161092 283.8870669 277.9265617 283.8014653 277.9265617 54.7455566 262.6381304 34.4996485 234.7560484 34.4996485"/>
  <polyline class="b" points="407.1643466 33.6139823 332.8566872 33.6139823 332.8566872 64.9624853 396.8260322 64.9624853 396.8260322 92.2919495 322.3376903 92.2919495"/>
  <line class="b" x1="414.8043907" y1="34.4996485" x2="428.9399482" y2="34.4996485"/>
  <polyline class="b" points="340.9568482 49.4115271 422.2160622 49.4115271 422.4444348 100.0285992"/>
  <g>
    <path class="d" d="M341.4068899,133.2398839c-1.6259766,0-1.7216797,1.1953125-1.7216797,2.9648438v11.1904297c0,1.7695312.0957031,2.9648438,1.7216797,2.9648438v.1435547h-6.1210938v-.1435547c1.6259766,0,1.7207031-1.1953125,1.7207031-2.9648438v-5.6904297h-6.6943359v5.6904297c0,1.7695312.0957031,2.9648438,1.7216797,2.9648438v.1435547h-6.1210938v-.1435547c1.6259766,0,1.7216797-1.1953125,1.7216797-2.9648438v-11.1904297c0-1.7695312-.0957031-2.9648438-1.7216797-2.9648438v-.1435547h6.1210938v.1435547c-1.6259766,0-1.7216797,1.1953125-1.7216797,2.9648438v5.0693359h6.6943359v-5.0693359c0-1.7695312-.0947266-2.9648438-1.7207031-2.9648438v-.1435547h6.1210938v.1435547Z"/>
    <path class="d" d="M357.6939993,147.4430089c.6933594,1.9609375,1.171875,2.8212891,2.1757812,2.9169922v.1435547h-6.1210938v-.1435547c1.3388672-.0957031,1.7939453-1.0039062,1.3388672-2.2714844l-1.2431641-3.5146484h-5.3320312l-.4775391,1.3154297c-1.0048828,2.8212891-.8369141,4.2792969.7890625,4.4707031v.1435547h-4.0175781v-.1435547c1.1474609-.1435547,1.7460938-1.7451172,2.7734375-4.6142578l4.6630859-12.9355469h.1914062l5.2597656,14.6328125ZM348.7037649,143.9996495h4.9492188l-2.4619141-6.9814453-2.4873047,6.9814453Z"/>
    <path class="d" d="M370.846343,133.0963292h4.0166016v.1435547c-1.2431641.1435547-2.3193359,1.9375-3.6347656,4.6152344l-2.390625,4.9013672v4.6386719c0,1.7695312.0957031,2.9648438,1.7216797,2.9648438v.1435547h-6.1210938v-.1435547c1.6259766,0,1.7216797-1.1953125,1.7216797-2.9648438v-4.1367188l-3.4667969-7.1015625c-.9804688-2.0078125-1.4589844-2.8212891-2.1767578-2.9169922v-.1435547h6.1210938v.1435547c-1.3388672.0957031-1.8886719.9804688-1.2666016,2.2714844l3.2275391,6.7431641,2.2001953-4.5429688c1.2431641-2.5585938,1.6738281-4.2802734.0478516-4.4716797v-.1435547Z"/>
    <path class="d" d="M387.8951711,147.4430089c.6933594,1.9609375,1.171875,2.8212891,2.1757812,2.9169922v.1435547h-6.1210938v-.1435547c1.3388672-.0957031,1.7939453-1.0039062,1.3388672-2.2714844l-1.2431641-3.5146484h-5.3320312l-.4775391,1.3154297c-1.0048828,2.8212891-.8369141,4.2792969.7890625,4.4707031v.1435547h-4.0175781v-.1435547c1.1474609-.1435547,1.7460938-1.7451172,2.7734375-4.6142578l4.6630859-12.9355469h.1914062l5.2597656,14.6328125ZM378.9049368,143.9996495h4.9492188l-2.4619141-6.9814453-2.4873047,6.9814453Z"/>
    <path class="d" d="M393.6520071,149.8101964l-.1435547-3.9453125h.1435547c1.0517578,3.0126953,2.7021484,4.5908203,4.9257812,4.5908203,1.8886719,0,3.5625-1.2675781,3.5625-3.4433594s-1.7216797-3.0839844-3.7304688-4.0644531l-1.21875-.5976562c-1.6025391-.7890625-3.3242188-1.9130859-3.3242188-4.5908203,0-2.8457031,2.0566406-4.9492188,4.9980469-4.9492188,1.3144531,0,3.15625.4296875,4.3037109.9560547v3.1083984h-.1435547c-1.0761719-2.5820312-2.4873047-3.7304688-4.3037109-3.7304688-1.9375,0-3.1806641,1.2910156-3.1806641,3.2285156,0,2.0078125,1.5302734,2.7490234,2.9892578,3.4667969l1.2197266.5976562c2.0800781,1.0283203,4.0644531,2.1523438,4.0644531,5.0927734,0,3.0126953-2.2480469,5.2607422-5.5957031,5.2607422-1.3867188,0-3.4423828-.40625-4.5664062-.9804688Z"/>
    <path class="d" d="M423.4234914,133.2398839c-1.6259766,0-1.7216797,1.1953125-1.7216797,2.9648438v11.1904297c0,1.7695312.0957031,2.9648438,1.7216797,2.9648438v.1435547h-6.1210938v-.1435547c1.6259766,0,1.7207031-1.1953125,1.7207031-2.9648438v-5.6904297h-6.6943359v5.6904297c0,1.7695312.0957031,2.9648438,1.7216797,2.9648438v.1435547h-6.1210938v-.1435547c1.6259766,0,1.7216797-1.1953125,1.7216797-2.9648438v-11.1904297c0-1.7695312-.0957031-2.9648438-1.7216797-2.9648438v-.1435547h6.1210938v.1435547c-1.6259766,0-1.7216797,1.1953125-1.7216797,2.9648438v5.0693359h6.6943359v-5.0693359c0-1.7695312-.0947266-2.9648438-1.7207031-2.9648438v-.1435547h6.1210938v.1435547Z"/>
    <path class="d" d="M427.5660696,150.5035557v-.1435547c1.6259766,0,1.7216797-1.1953125,1.7216797-2.9648438v-11.1904297c0-1.7695312-.0957031-2.9648438-1.7216797-2.9648438v-.1435547h6.1210938v.1435547c-1.6259766,0-1.7216797,1.1953125-1.7216797,2.9648438v11.1904297c0,1.7695312.0957031,2.9648438,1.7216797,2.9648438v.1435547h-6.1210938Z"/>
    <path class="d" d="M325.7926321,177.8326573v-.1435547c1.6259766,0,1.7216797-1.1953125,1.7216797-2.9648438v-11.1904297c0-1.7685547-.0957031-2.9648438-1.7216797-2.9648438v-.1435547h6.1210938v.1435547c-1.6259766,0-1.7216797,1.1962891-1.7216797,2.9648438v12.8164062c0,.7177734.2148438,1.0996094.9326172,1.0996094h1.0283203c2.5820312,0,3.8017578-.7646484,5.4277344-4.2080078h.1425781l-.6210938,4.5908203h-11.3095703Z"/>
    <path class="d" d="M341.5523977,169.1773839c0-5.3564453,3.15625-9.0380859,7.8896484-9.0380859,4.7822266,0,7.8427734,3.4902344,7.8427734,8.9423828,0,5.3554688-3.15625,9.0380859-7.890625,9.0380859-4.78125,0-7.8417969-3.4912109-7.8417969-8.9423828ZM354.3199758,169.1295323c0-4.8300781-1.6738281-8.65625-4.9257812-8.65625-3.2509766,0-4.8769531,3.6826172-4.8769531,8.65625,0,4.8300781,1.6738281,8.6552734,4.9248047,8.6552734,3.2519531,0,4.8779297-3.6826172,4.8779297-8.6552734Z"/>
    <path class="d" d="M361.8600149,169.1773839c0-5.3564453,3.4912109-9.0380859,8.2011719-9.0380859,2.6064453,0,4.3759766.6210938,5.5234375,1.1953125v3.2519531h-.1435547c-1.2910156-2.6787109-2.8212891-4.1132812-5.4277344-4.1132812-3.1796875,0-5.1884766,3.6826172-5.1884766,8.6796875,0,4.8544922,1.7929688,8.6318359,5.2128906,8.6318359,1.8886719,0,3.1796875-.8603516,3.1796875-2.2480469v-2.6533203c0-1.7695312-.0957031-2.7021484-1.4824219-2.7978516v-.1435547h4.9257812v.1435547c-.7177734.0957031-.765625,1.0283203-.765625,2.7978516v3.5146484c-1.3388672.9082031-3.4667969,1.7216797-5.953125,1.7216797-4.9736328,0-8.0820312-3.6347656-8.0820312-8.9423828Z"/>
    <path class="d" d="M380.8951711,169.1773839c0-5.3564453,3.1552734-9.0380859,7.8896484-9.0380859,4.7822266,0,7.8427734,3.4902344,7.8427734,8.9423828,0,5.3554688-3.15625,9.0380859-7.890625,9.0380859-4.78125,0-7.8417969-3.4912109-7.8417969-8.9423828ZM393.6627493,169.1295323c0-4.8300781-1.6738281-8.65625-4.9257812-8.65625-3.2509766,0-4.8769531,3.6826172-4.8769531,8.65625,0,4.8300781,1.6738281,8.6552734,4.9248047,8.6552734,3.2519531,0,4.8779297-3.6826172,4.8779297-8.6552734Z"/>
    <path class="d" d="M416.0875539,160.5689854c-1.6259766,0-1.7216797,1.1962891-1.7216797,2.9648438v11.1904297c0,1.7695312.0957031,2.9648438,1.7216797,2.9648438v.1435547h-6.1210938v-.1435547c1.6259766,0,1.7207031-1.1953125,1.7207031-2.9648438v-5.6904297h-6.6943359v5.6904297c0,1.7695312.0957031,2.9648438,1.7216797,2.9648438v.1435547h-6.1210938v-.1435547c1.6259766,0,1.7216797-1.1953125,1.7216797-2.9648438v-11.1904297c0-1.7685547-.0957031-2.9648438-1.7216797-2.9648438v-.1435547h6.1210938v.1435547c-1.6259766,0-1.7216797,1.1962891-1.7216797,2.9648438v5.0693359h6.6943359v-5.0693359c0-1.7685547-.0947266-2.9648438-1.7207031-2.9648438v-.1435547h6.1210938v.1435547Z"/>
    <path class="d" d="M432.3736868,174.7721104c.6933594,1.9609375,1.171875,2.8212891,2.1757812,2.9169922v.1435547h-6.1210938v-.1435547c1.3388672-.0957031,1.7939453-1.0039062,1.3388672-2.2714844l-1.2431641-3.5146484h-5.3320312l-.4775391,1.3154297c-1.0048828,2.8212891-.8369141,4.2792969.7890625,4.4707031v.1435547h-4.0175781v-.1435547c1.1474609-.1435547,1.7460938-1.7451172,2.7734375-4.6142578l4.6630859-12.9355469h.1914062l5.2597656,14.6328125ZM423.3834524,171.328751h4.9492188l-2.4619141-6.9814453-2.4873047,6.9814453Z"/>
    <path class="d" d="M332.6578664,202.054337c0,1.7695312.0957031,2.9648438,1.7216797,2.9648438v.1435547h-6.1210938v-.1435547c1.6259766,0,1.7216797-1.1953125,1.7216797-2.9648438v-11.1904297c0-1.7685547-.0957031-2.9648438-1.7216797-2.9648438v-.1435547h6.1210938v.1435547c-1.6259766,0-1.7216797,1.1962891-1.7216797,2.9648438v11.1904297ZM335.3121633,194.8570714c4.3271484,6.71875,6.5751953,9.875,7.8183594,10.1621094v.1435547c-.8369141.0957031-1.8652344.0957031-2.390625.0957031-2.0566406,0-2.9648438-1.6259766-7.4609375-8.703125l4.2802734-5.0458984c1.0283203-1.1953125,1.4824219-1.9599609,1.4824219-2.6298828,0-.5976562-.4541016-.9326172-.9326172-.9804688v-.1435547h4.5908203v.1435547c-.8125.1435547-2.5585938,1.2910156-4.7822266,3.8974609l-2.6054688,3.0605469Z"/>
    <path class="d" d="M345.3707571,196.507462c0-5.3564453,3.15625-9.0380859,7.8896484-9.0380859,4.7822266,0,7.8427734,3.4902344,7.8427734,8.9423828,0,5.3554688-3.15625,9.0380859-7.890625,9.0380859-4.78125,0-7.8417969-3.4912109-7.8417969-8.9423828ZM358.1383352,196.4596104c0-4.8300781-1.6738281-8.65625-4.9257812-8.65625-3.2509766,0-4.8769531,3.6826172-4.8769531,8.65625,0,4.8300781,1.6738281,8.6552734,4.9248047,8.6552734,3.2519531,0,4.8779297-3.6826172,4.8779297-8.6552734Z"/>
    <path class="d" d="M375.3131399,187.7555089h4.4951172v.1435547c-1.6259766,0-1.8652344,1.8173828-1.8652344,4.3994141v13.1513672h-.1435547l-10.4248047-15.6132812v10.8310547c0,2.4863281.4775391,4.3515625,2.1992188,4.3515625v.1435547h-4.734375v-.1435547c1.6259766,0,2.1044922-1.8652344,2.1044922-4.3515625v-10.1376953c0-1.7216797-.8125-2.4394531-2.1044922-2.6308594v-.1435547h4.3046875l8.3681641,12.6494141v-8.1064453c0-2.5820312-.3828125-4.3994141-2.1992188-4.3994141v-.1435547Z"/>
    <path class="d" d="M383.5885305,196.507462c0-5.3564453,3.1552734-9.0380859,7.8896484-9.0380859,4.7822266,0,7.8427734,3.4902344,7.8427734,8.9423828,0,5.3554688-3.15625,9.0380859-7.890625,9.0380859-4.78125,0-7.8417969-3.4912109-7.8417969-8.9423828ZM396.3561086,196.4596104c0-4.8300781-1.6738281-8.65625-4.9257812-8.65625-3.2509766,0-4.8769531,3.6826172-4.8769531,8.65625,0,4.8300781,1.6738281,8.6552734,4.9248047,8.6552734,3.2519531,0,4.8779297-3.6826172,4.8779297-8.6552734Z"/>
    <path class="d" d="M403.9439993,204.469376l-.1435547-3.9453125h.1435547c1.0517578,3.0126953,2.7021484,4.5908203,4.9257812,4.5908203,1.8886719,0,3.5625-1.2675781,3.5625-3.4433594s-1.7216797-3.0839844-3.7304688-4.0644531l-1.21875-.5976562c-1.6025391-.7890625-3.3242188-1.9130859-3.3242188-4.5908203,0-2.8457031,2.0566406-4.9492188,4.9980469-4.9492188,1.3144531,0,3.15625.4296875,4.3037109.9560547v3.1083984h-.1435547c-1.0761719-2.5820312-2.4873047-3.7304688-4.3037109-3.7304688-1.9375,0-3.1806641,1.2919922-3.1806641,3.2285156,0,2.0078125,1.5302734,2.7490234,2.9892578,3.4667969l1.21875.5976562c2.0810547,1.0283203,4.0654297,2.1523438,4.0654297,5.0927734,0,3.0126953-2.2480469,5.2607422-5.5947266,5.2607422-1.3876953,0-3.4433594-.40625-4.5673828-.9804688Z"/>
    <path class="d" d="M429.9098196,202.1021885c.6933594,1.9609375,1.171875,2.8212891,2.1757812,2.9169922v.1435547h-6.1210938v-.1435547c1.3398438-.0957031,1.7939453-1.0039062,1.3398438-2.2714844l-1.2441406-3.5146484h-5.3320312l-.4775391,1.3154297c-1.0048828,2.8212891-.8369141,4.2792969.7890625,4.4707031v.1435547h-4.0175781v-.1435547c1.1474609-.1435547,1.7460938-1.7451172,2.7734375-4.6142578l4.6630859-12.9355469h.1914062l5.2597656,14.6328125ZM420.9195852,198.6588292h4.9492188l-2.4619141-6.9814453-2.4873047,6.9814453Z"/>
    <path class="d" d="M330.4273977,229.3834385c0,1.7695312.0957031,2.9648438,1.7216797,2.9648438v.1435547h-6.1210938v-.1435547c1.6259766,0,1.7216797-1.1953125,1.7216797-2.9648438v-11.1904297c0-1.7695312-.0957031-2.9648438-1.7216797-2.9648438v-.1435547h6.1210938v.1435547c-1.6259766,0-1.7216797,1.1953125-1.7216797,2.9648438v11.1904297ZM333.0816946,222.1861729c4.3271484,6.71875,6.5751953,9.875,7.8183594,10.1621094v.1435547c-.8369141.0957031-1.8652344.0957031-2.390625.0957031-2.0566406,0-2.9648438-1.6259766-7.4609375-8.703125l4.2802734-5.0458984c1.0283203-1.1953125,1.4824219-1.9599609,1.4824219-2.6298828,0-.5976562-.4541016-.9326172-.9326172-.9804688v-.1435547h4.5908203v.1435547c-.8125.1435547-2.5585938,1.2910156-4.7822266,3.8974609l-2.6054688,3.0605469Z"/>
    <path class="d" d="M344.2281789,232.491837v-.1435547c1.6259766,0,1.7216797-1.1953125,1.7216797-2.9648438v-11.1904297c0-1.7695312-.0957031-2.9648438-1.7216797-2.9648438v-.1435547h6.1210938v.1435547c-1.6259766,0-1.7216797,1.1953125-1.7216797,2.9648438v11.1904297c0,1.7695312.0957031,2.9648438,1.7216797,2.9648438v.1435547h-6.1210938Z"/>
    <path class="d" d="M364.7594289,215.0846104h4.4951172v.1435547c-1.6259766,0-1.8652344,1.8173828-1.8652344,4.3994141v13.1513672h-.1435547l-10.4248047-15.6132812v10.8310547c0,2.4863281.4775391,4.3515625,2.1992188,4.3515625v.1435547h-4.734375v-.1435547c1.6259766,0,2.1044922-1.8652344,2.1044922-4.3515625v-10.1376953c0-1.7216797-.8125-2.4394531-2.1044922-2.6308594v-.1435547h4.3046875l8.3681641,12.6494141v-8.1064453c0-2.5820312-.3828125-4.3994141-2.1992188-4.3994141v-.1435547Z"/>
    <path class="d" d="M373.2613821,232.491837v-.1435547c1.6259766,0,1.7216797-1.1953125,1.7216797-2.9648438v-11.1904297c0-1.7695312-.0957031-2.9648438-1.7216797-2.9648438v-.1435547h6.1210938v.1435547c-1.6259766,0-1.7216797,1.1953125-1.7216797,2.9648438v11.1904297c0,1.7695312.0957031,2.9648438,1.7216797,2.9648438v.1435547h-6.1210938Z"/>
    <path class="d" d="M396.7086477,218.8629307h-.1435547c-1.3154297-2.7978516-2.1523438-3.3955078-4.4472656-3.3955078h-.7412109v13.9160156c0,1.7695312.0957031,2.9648438,1.7207031,2.9648438v.1435547h-6.1210938v-.1435547c1.6259766,0,1.7216797-1.1953125,1.7216797-2.9648438v-13.9160156h-.7412109c-2.2714844,0-3.1318359.5976562-4.4472656,3.3955078h-.1435547l.3349609-3.7783203h12.6728516l.3349609,3.7783203Z"/>
    <path class="d" d="M402.2770071,226.8492589v-8.65625c0-1.7695312-.0957031-2.9648438-1.7216797-2.9648438v-.1435547h6.1210938v.1435547c-1.6259766,0-1.7216797,1.1953125-1.7216797,2.9648438v8.5126953c0,3.8017578,1.171875,5.4511719,4.0166016,5.4511719,2.6787109,0,4.3994141-1.578125,4.3994141-5.4033203v-7.1259766c0-2.2470703-.3818359-4.3994141-2.0078125-4.3994141v-.1435547h4.3037109v.1435547c-1.6259766,0-1.8652344,2.1523438-1.8652344,4.3994141v7.1259766c0,4.1123047-1.8652344,6.0253906-5.546875,6.0253906-3.8496094,0-5.9775391-1.8173828-5.9775391-5.9296875Z"/>
    <path class="d" d="M423.9147024,229.3834385c0,1.7695312.0957031,2.9648438,1.7216797,2.9648438v.1435547h-6.1210938v-.1435547c1.6259766,0,1.7216797-1.1953125,1.7216797-2.9648438v-11.1904297c0-1.7695312-.0957031-2.9648438-1.7216797-2.9648438v-.1435547h6.1210938v.1435547c-1.6259766,0-1.7216797,1.1953125-1.7216797,2.9648438v11.1904297ZM426.5689993,222.1861729c4.3271484,6.71875,6.5751953,9.875,7.8183594,10.1621094v.1435547c-.8369141.0957031-1.8652344.0957031-2.390625.0957031-2.0566406,0-2.9658203-1.6259766-7.4609375-8.703125l4.2802734-5.0458984c1.0283203-1.1953125,1.4824219-1.9599609,1.4824219-2.6298828,0-.5976562-.4541016-.9326172-.9326172-.9804688v-.1435547h4.5908203v.1435547c-.8125.1435547-2.5585938,1.2910156-4.7822266,3.8974609l-2.6054688,3.0605469Z"/>
    <path class="d" d="M323.1842336,254.1783604v-8.65625c0-1.7685547-.0957031-2.9648438-1.7216797-2.9648438v-.1435547h6.1210938v.1435547c-1.6259766,0-1.7216797,1.1962891-1.7216797,2.9648438v8.5126953c0,3.8017578,1.171875,5.4511719,4.0166016,5.4511719,2.6787109,0,4.3994141-1.578125,4.3994141-5.4033203v-7.1259766c0-2.2470703-.3818359-4.3994141-2.0078125-4.3994141v-.1435547h4.3037109v.1435547c-1.6259766,0-1.8652344,2.1523438-1.8652344,4.3994141v7.1259766c0,4.1123047-1.8652344,6.0253906-5.546875,6.0253906-3.8496094,0-5.9775391-1.8173828-5.9775391-5.9296875Z"/>
    <path class="d" d="M354.7926321,259.6773839v.1435547c-.3828125.0478516-1.578125.0957031-2.2958984.0957031-1.7216797,0-2.1513672-.765625-5.1162109-7.2685547-.4072266-.8613281-.8134766-1.0527344-1.578125-1.0527344h-.9804688v5.1171875c0,1.7695312.0957031,2.9648438,1.7216797,2.9648438v.1435547h-6.1210938v-.1435547c1.6259766,0,1.7216797-1.1953125,1.7216797-2.9648438v-11.1904297c0-1.7685547-.0957031-2.9648438-1.7216797-2.9648438v-.1435547h6.4560547c3.8251953,0,5.9296875,1.7695312,5.9296875,4.5429688,0,2.34375-1.7460938,3.8261719-3.8974609,4.4003906v.046875c.6933594.4072266,1.2910156,1.3632812,1.8642578,2.4628906,2.3916016,4.5908203,2.8701172,5.4277344,4.0175781,5.8105469ZM344.8219289,251.2135167h1.6259766c2.3671875,0,3.5859375-1.4589844,3.5859375-4.0654297,0-2.5341797-1.1230469-4.3515625-3.5625-4.3515625h-.7412109c-.5732422,0-.9082031.2871094-.9082031.8613281v7.5556641Z"/>
    <path class="d" d="M358.0250539,259.8209385v-.1435547c1.6259766,0,1.7216797-1.1953125,1.7216797-2.9648438v-11.1904297c0-1.7685547-.0957031-2.9648438-1.7216797-2.9648438v-.1435547h6.1210938v.1435547c-1.6259766,0-1.7216797,1.1962891-1.7216797,2.9648438v11.1904297c0,1.7695312.0957031,2.9648438,1.7216797,2.9648438v.1435547h-6.1210938Z"/>
    <path class="d" d="M385.5699758,256.7125401c.0957031,1.7695312.1914062,2.9648438,1.8173828,2.9648438v.1435547h-6.0488281v-.1435547c1.6259766,0,1.7216797-1.1953125,1.6259766-2.9648438l-.6699219-12.3378906-5.5234375,15.4462891h-.1914062l-5.6191406-15.4462891-.5732422,10.9033203c-.1435547,2.5107422.4541016,4.3994141,2.0800781,4.3994141v.1435547h-4.5429688v-.1435547c1.5302734-.1191406,1.9130859-1.9130859,2.0322266-4.3994141l.5263672-10.0898438c.0957031-1.7216797-.765625-2.4394531-1.9130859-2.6308594v-.1435547h4.5195312l4.7578125,13.0791016,4.6865234-13.0791016h4.1367188v.1435547c-1.6259766.1435547-1.8173828,1.1962891-1.7216797,2.9648438l.6210938,11.1904297Z"/>
    <path class="d" d="M403.3551321,256.7603917c.6933594,1.9609375,1.171875,2.8212891,2.1757812,2.9169922v.1435547h-6.1210938v-.1435547c1.3398438-.0957031,1.7939453-1.0039062,1.3398438-2.2714844l-1.2441406-3.5146484h-5.3320312l-.4775391,1.3154297c-1.0048828,2.8212891-.8369141,4.2792969.7890625,4.4707031v.1435547h-4.0175781v-.1435547c1.1474609-.1435547,1.7460938-1.7451172,2.7734375-4.6142578l4.6630859-12.9355469h.1914062l5.2597656,14.6328125ZM394.3648977,253.3170323h4.9492188l-2.4619141-6.9814453-2.4873047,6.9814453Z"/>
    <path class="d" d="M409.1041555,259.1275792l-.1435547-3.9453125h.1435547c1.0517578,3.0126953,2.7021484,4.5908203,4.9257812,4.5908203,1.8886719,0,3.5625-1.2675781,3.5625-3.4433594s-1.7216797-3.0839844-3.7304688-4.0644531l-1.21875-.5976562c-1.6025391-.7890625-3.3242188-1.9130859-3.3242188-4.5908203,0-2.8457031,2.0566406-4.9492188,4.9980469-4.9492188,1.3144531,0,3.15625.4296875,4.3037109.9560547v3.1083984h-.1435547c-1.0761719-2.5820312-2.4873047-3.7304688-4.3037109-3.7304688-1.9375,0-3.1806641,1.2919922-3.1806641,3.2285156,0,2.0078125,1.5302734,2.7490234,2.9892578,3.4667969l1.21875.5976562c2.0810547,1.0283203,4.0654297,2.1523438,4.0654297,5.0927734,0,3.0126953-2.2480469,5.2607422-5.5947266,5.2607422-1.3876953,0-3.4433594-.40625-4.5673828-.9804688Z"/>
    <path class="d" d="M424.9107961,254.1783604v-8.65625c0-1.7685547-.0957031-2.9648438-1.7216797-2.9648438v-.1435547h6.1210938v.1435547c-1.6259766,0-1.7216797,1.1962891-1.7216797,2.9648438v8.5126953c0,3.8017578,1.171875,5.4511719,4.0166016,5.4511719,2.6787109,0,4.3994141-1.578125,4.3994141-5.4033203v-7.1259766c0-2.2470703-.3818359-4.3994141-2.0078125-4.3994141v-.1435547h4.3037109v.1435547c-1.6259766,0-1.8652344,2.1523438-1.8652344,4.3994141v7.1259766c0,4.1123047-1.8652344,6.0253906-5.546875,6.0253906-3.8496094,0-5.9775391-1.8173828-5.9775391-5.9296875Z"/>
  </g>
</svg>